<?xml version="1.0" standalone="no"?>
<!DOCTYPE svg PUBLIC "-//W3C//DTD SVG 20010904//EN"
 "http://www.w3.org/TR/2001/REC-SVG-20010904/DTD/svg10.dtd">
<svg version="1.0" xmlns="http://www.w3.org/2000/svg"
 width="1724.000000pt" height="1920.000000pt" viewBox="0 0 1724.000000 1920.000000"
 preserveAspectRatio="xMidYMid meet">

<g transform="translate(0.000000,1920.000000) scale(0.100000,-0.100000)"
fill="#0077FF" stroke="none">
<path d="M8295 19194 c-72 -4 -268 -26 -390 -45 -123 -18 -422 -79 -490 -100
-16 -5 -86 -25 -155 -45 -69 -19 -156 -47 -195 -61 -108 -39 -198 -73 -220
-83 -11 -5 -45 -19 -75 -31 -86 -33 -437 -208 -523 -261 -43 -26 -81 -48 -83
-48 -3 0 -71 -44 -152 -98 -170 -114 -327 -231 -462 -345 -119 -100 -475 -457
-555 -556 -175 -216 -283 -365 -420 -581 -124 -195 -286 -521 -376 -757 -172
-452 -258 -821 -309 -1331 -17 -171 -15 -195 19 -220 16 -12 92 -82 168 -155
135 -131 234 -226 935 -902 188 -181 392 -379 453 -440 61 -60 266 -259 455
-442 190 -183 438 -422 551 -533 l207 -200 87 95 c111 122 363 347 484 433
175 124 340 225 496 302 422 209 796 279 1115 209 25 -5 54 -11 65 -13 466
-90 1088 -467 1532 -929 l102 -106 283 276 c156 152 333 324 393 382 61 58
250 241 420 407 309 300 453 439 1112 1074 192 184 392 378 446 432 53 53 110
104 125 113 27 16 28 20 25 83 -5 123 -24 326 -39 417 -8 50 -19 122 -26 160
-24 149 -100 457 -154 620 -160 490 -409 971 -717 1385 -255 342 -611 699
-947 950 -14 10 -45 33 -70 52 -95 71 -355 238 -460 295 -30 16 -89 48 -130
71 -92 50 -291 141 -425 193 -55 22 -109 44 -120 49 -64 29 -436 142 -515 156
-14 3 -31 7 -39 10 -21 7 -260 56 -316 64 -27 5 -90 13 -140 19 -49 7 -119 16
-155 22 -65 10 -684 20 -815 13z"/>
<path d="M3934 13680 c3 -36 10 -94 15 -130 9 -58 18 -105 51 -280 16 -86 57
-275 69 -315 6 -22 22 -87 36 -144 14 -57 32 -124 40 -150 7 -25 24 -80 36
-121 89 -309 273 -807 401 -1090 16 -36 44 -96 61 -135 53 -116 250 -502 319
-625 566 -1002 1244 -1776 1973 -2251 648 -423 1294 -600 1948 -534 81 8 166
19 190 24 23 5 71 15 107 21 192 35 495 142 730 258 493 242 1005 649 1426
1132 149 171 203 235 244 290 19 26 62 83 96 126 125 163 386 545 448 659 6
11 44 75 84 143 117 196 309 566 411 791 65 143 123 276 137 316 8 22 19 49
24 60 11 22 98 246 110 285 5 14 23 63 40 110 33 92 79 228 100 300 7 25 19
63 26 85 27 81 115 407 135 500 5 22 16 72 24 110 34 151 90 465 100 565 l7
64 -58 -51 c-33 -28 -199 -188 -369 -355 -171 -166 -465 -451 -653 -633 -571
-550 -796 -767 -1055 -1022 l-248 -242 76 -137 c195 -349 316 -705 366 -1082
15 -107 19 -96 -76 -218 -192 -247 -598 -656 -843 -849 -128 -101 -149 -117
-242 -183 -211 -150 -454 -288 -678 -385 -105 -45 -315 -114 -405 -132 -10 -2
-27 -7 -37 -10 -72 -23 -352 -55 -480 -55 -128 0 -408 32 -480 55 -10 3 -27 8
-38 10 -53 10 -243 70 -274 86 -10 5 -22 9 -28 9 -20 0 -268 114 -380 175
-351 192 -674 436 -1024 775 -171 167 -387 409 -514 577 l-32 43 15 113 c31
237 114 548 195 732 10 22 36 83 59 135 23 52 73 151 111 220 l70 125 -323
315 c-360 353 -601 586 -1107 1072 -190 183 -442 427 -560 542 -118 116 -253
247 -299 291 l-83 80 6 -65z"/>
<path d="M5060 8633 c-174 -13 -591 -92 -868 -165 -76 -20 -232 -184 -349
-368 -38 -59 -133 -249 -133 -265 0 -4 -7 -21 -15 -38 -31 -68 -100 -315 -123
-442 -26 -142 -33 -184 -37 -231 -3 -27 -9 -92 -14 -144 -6 -52 -13 -163 -16
-247 l-5 -152 32 -17 c52 -27 182 -164 219 -232 31 -58 40 -66 119 -109 257
-141 493 -353 702 -633 57 -76 198 -286 198 -295 0 -2 20 -37 44 -77 87 -144
166 -319 176 -391 9 -61 0 -190 -14 -204 -2 -3 9 -42 26 -87 32 -87 75 -212
88 -261 5 -16 16 -57 25 -90 9 -33 18 -69 21 -79 2 -10 8 -33 13 -50 24 -76
65 -305 96 -533 23 -173 21 -736 -4 -908 -23 -159 -26 -169 -63 -275 -67 -189
-191 -332 -360 -414 -51 -25 -121 -52 -156 -61 -34 -9 -85 -32 -114 -50 -79
-52 -118 -57 -453 -53 l-300 3 -67 33 c-223 110 -296 379 -157 583 45 66 96
108 179 147 l55 26 290 1 c160 0 318 -4 353 -8 l62 -9 14 34 c38 93 56 655 28
873 -38 296 -84 493 -174 763 -51 151 -53 154 -100 188 -66 49 -108 103 -162
211 -80 161 -227 396 -302 483 -12 14 -46 54 -76 90 -75 90 -217 203 -319 254
-152 77 -265 82 -408 19 -163 -71 -366 -258 -516 -477 -78 -113 -196 -316
-253 -436 -46 -98 -98 -161 -175 -214 -54 -37 -55 -39 -92 -149 -54 -164 -119
-422 -138 -557 -3 -19 -11 -71 -19 -115 -17 -105 -16 -731 1 -825 19 -100 29
-126 58 -139 20 -9 33 -9 62 1 26 10 118 13 341 13 299 0 306 0 360 -24 105
-45 181 -119 228 -221 34 -75 36 -206 3 -293 -41 -105 -124 -190 -230 -234
-54 -22 -66 -23 -362 -23 -324 0 -336 1 -419 50 -25 15 -86 37 -135 50 -258
67 -440 226 -531 465 -60 159 -93 441 -94 789 0 256 15 410 71 738 9 57 67
304 79 338 5 14 30 93 56 175 26 83 52 156 58 164 7 9 10 56 8 130 -3 136 10
185 91 346 285 565 632 970 1035 1204 54 31 77 52 92 81 54 106 145 210 234
266 l46 29 0 95 c0 158 23 408 61 655 30 193 129 566 180 678 7 15 10 30 6 33
-8 8 -252 -123 -377 -201 -316 -199 -543 -365 -780 -570 -206 -177 -564 -549
-700 -725 -19 -25 -37 -47 -40 -50 -17 -14 -169 -222 -252 -345 -178 -263
-370 -611 -487 -881 -24 -54 -49 -112 -57 -129 -45 -102 -161 -434 -202 -580
-75 -261 -145 -591 -171 -805 -6 -47 -18 -146 -28 -220 -25 -196 -25 -942 0
-1110 9 -63 22 -149 28 -190 40 -276 134 -581 252 -815 314 -625 865 -1018
1712 -1220 189 -45 282 -65 335 -71 14 -1 52 -7 85 -13 159 -26 414 -57 585
-70 631 -49 213 -46 5600 -46 5387 0 4969 -3 5600 46 177 13 467 49 610 74 41
7 107 18 145 25 39 7 135 28 215 46 660 154 1145 418 1466 796 272 320 459
752 533 1228 48 306 46 276 45 760 0 381 -3 488 -17 595 -9 72 -22 166 -28
210 -5 44 -14 100 -19 125 -5 25 -16 86 -25 135 -39 217 -106 476 -189 727
-232 697 -600 1347 -1082 1909 -114 134 -480 500 -609 610 -119 101 -303 246
-398 313 -121 85 -382 256 -392 256 -3 0 -28 15 -57 34 -77 48 -348 189 -354
183 -3 -3 4 -24 14 -48 39 -87 55 -131 108 -304 60 -191 108 -417 144 -675 14
-101 35 -323 43 -464 l2 -39 110 -37 c367 -123 646 -361 814 -696 45 -89 116
-274 106 -274 -3 0 0 -12 6 -27 18 -48 38 -213 38 -318 0 -105 -20 -270 -38
-317 -6 -16 -9 -28 -6 -28 8 0 -54 -170 -93 -250 -49 -102 -104 -189 -177
-279 -281 -349 -751 -547 -1189 -502 -146 15 -180 23 -316 68 -106 35 -275
118 -347 170 -339 245 -563 624 -588 993 -3 41 -8 89 -11 107 -5 36 12 231 28
313 16 85 74 253 114 331 171 340 469 596 824 710 l85 27 -3 103 c-7 263 -70
640 -149 894 -117 378 -261 632 -480 847 -80 78 -106 99 -143 108 -25 6 -67
17 -95 25 -27 7 -79 18 -115 25 -36 6 -94 18 -130 25 -36 8 -99 19 -140 25
-41 6 -97 15 -125 20 -59 11 -219 30 -256 30 -25 0 -27 -4 -33 -57 -24 -208
-191 -507 -493 -879 -282 -348 -854 -919 -1366 -1364 -60 -52 -141 -123 -180
-158 -40 -34 -116 -100 -170 -145 -54 -45 -122 -102 -151 -127 -83 -69 -262
-216 -377 -308 -30 -24 -72 -58 -94 -77 -22 -18 -101 -81 -175 -139 -74 -59
-151 -119 -170 -134 -52 -42 -243 -187 -258 -196 -14 -8 -37 9 -281 199 -84
66 -170 134 -192 150 -170 133 -483 388 -644 525 -48 41 -121 102 -161 135
-40 33 -118 101 -174 150 -57 50 -151 133 -211 185 -257 226 -393 354 -699
660 -361 360 -487 499 -705 777 -220 280 -357 547 -390 761 -7 46 1 44 -115
35z m6971 -4374 c49 -15 88 -57 100 -105 4 -22 9 -220 9 -441 l0 -402 423 -3
c401 -3 424 -4 456 -23 19 -11 43 -33 55 -48 21 -28 21 -37 21 -466 0 -485 2
-470 -68 -508 -29 -16 -73 -18 -459 -21 l-427 -3 -3 -427 c-3 -469 -3 -466
-65 -508 -26 -18 -52 -19 -465 -19 -423 0 -437 1 -464 20 -15 11 -35 36 -45
55 -18 32 -19 65 -19 457 l0 422 -433 3 c-480 3 -465 1 -507 71 -19 30 -20 53
-20 462 0 484 -2 472 76 511 36 18 68 19 462 22 l422 3 0 416 c0 406 1 418 21
461 16 33 32 49 63 63 38 17 72 19 435 19 267 0 406 -4 432 -11z"/>
<path d="M13980 5833 c-141 -24 -247 -74 -342 -162 -97 -89 -153 -176 -188
-292 -20 -66 -22 -83 -22 -189 0 -171 58 -318 175 -438 105 -108 201 -160 351
-189 232 -44 486 54 625 242 190 255 169 607 -48 838 -128 137 -370 220 -551
190z"/>
</g>
</svg>
